<?xml version="1.0" encoding="iso-8859-1"?>
<!-- Generator: Adobe Illustrator 16.0.0, SVG Export Plug-In . SVG Version: 6.00 Build 0)  -->
<!DOCTYPE svg PUBLIC "-//W3C//DTD SVG 1.1//EN" "http://www.w3.org/Graphics/SVG/1.1/DTD/svg11.dtd">
<svg version="1.1" id="Capa_1" xmlns="http://www.w3.org/2000/svg" xmlns:xlink="http://www.w3.org/1999/xlink" x="0px" y="0px"
	 width="363.025px" height="363.024px" viewBox="0 0 363.025 363.024" style="enable-background:new 0 0 363.025 363.024;"
	 xml:space="preserve">
<g>
	<path style="fill:#030303;" d="M363.025,181.513c0-49.355-20.271-96.623-55.762-130.777l0.132-0.117l-4.872-4.362l-3.905-3.488
		l-0.092,0.08C265.796,15.201,224.472,0,181.512,0C138.553,0,97.226,15.201,64.497,42.842l-0.089-0.074l-3.905,3.488l-4.872,4.362
		l0.129,0.117C20.271,84.89,0,132.157,0,181.513c0,49.357,20.271,96.629,55.759,130.782l-0.129,0.114l4.872,4.368l3.905,3.488
		l0.089-0.08c32.724,27.641,74.051,42.839,117.016,42.839c42.966,0,84.295-15.198,117.014-42.839l0.092,0.08l3.905-3.499
		l4.872-4.357l-0.132-0.12C342.754,278.142,363.025,230.87,363.025,181.513z M294.318,62.903c0.972-0.995,1.944-1.978,2.938-2.95
		c0.458-0.446,0.938-0.881,1.401-1.318c32.118,30.641,50.97,72.739,52.509,117.022H246.081c0.034-1.001,0.028-2.001,0.08-2.999
		c0.051-0.952,0.148-1.901,0.223-2.851c0.132-1.979,0.269-3.963,0.475-5.933c0.126-1.146,0.298-2.281,0.435-3.425
		c0.229-1.761,0.435-3.531,0.709-5.281c0.194-1.212,0.446-2.418,0.658-3.625c0.303-1.661,0.589-3.331,0.938-4.98
		c0.263-1.244,0.577-2.467,0.863-3.697c0.372-1.604,0.743-3.214,1.167-4.8c0.331-1.247,0.709-2.476,1.062-3.714
		c0.446-1.555,0.893-3.114,1.396-4.66c0.395-1.241,0.835-2.464,1.258-3.7c0.532-1.512,1.053-3.027,1.613-4.52
		c0.469-1.235,0.972-2.453,1.475-3.682c0.595-1.464,1.184-2.928,1.818-4.38c0.538-1.218,1.109-2.425,1.67-3.631
		c0.663-1.423,1.332-2.845,2.035-4.246c0.606-1.201,1.235-2.387,1.864-3.571c0.732-1.375,1.464-2.753,2.242-4.117
		c0.663-1.178,1.36-2.336,2.047-3.494c0.8-1.338,1.601-2.665,2.441-3.977c0.731-1.146,1.48-2.284,2.247-3.414
		c0.863-1.289,1.738-2.57,2.642-3.842c0.789-1.112,1.602-2.213,2.419-3.308c0.932-1.24,1.875-2.476,2.842-3.693
		c0.847-1.078,1.716-2.145,2.596-3.196c0.995-1.195,2.001-2.373,3.03-3.543c0.915-1.037,1.842-2.066,2.773-3.084
		C292.157,65.145,293.231,64.021,294.318,62.903z M288.794,51.842c-1.087,1.066-2.139,2.156-3.202,3.245
		c-1.127,1.164-2.253,2.33-3.352,3.522c-1.018,1.109-2.013,2.238-3.007,3.368c-1.069,1.224-2.133,2.453-3.168,3.705
		c-0.961,1.149-1.882,2.313-2.808,3.485c-1.007,1.283-2.007,2.57-2.979,3.876c-0.886,1.187-1.749,2.381-2.602,3.588
		c-0.943,1.335-1.87,2.676-2.773,4.034c-0.823,1.224-1.624,2.461-2.413,3.703c-0.869,1.381-1.727,2.773-2.562,4.174
		c-0.755,1.252-1.486,2.511-2.207,3.783c-0.806,1.435-1.59,2.879-2.355,4.332c-0.681,1.283-1.355,2.564-2.001,3.865
		c-0.732,1.481-1.441,2.968-2.139,4.469c-0.606,1.304-1.219,2.61-1.796,3.934c-0.663,1.521-1.292,3.062-1.921,4.604
		c-0.538,1.329-1.075,2.65-1.578,3.985c-0.595,1.569-1.144,3.15-1.688,4.731c-0.463,1.341-0.932,2.682-1.366,4.034
		c-0.515,1.615-0.983,3.25-1.464,4.877c-0.389,1.346-0.789,2.688-1.149,4.04c-0.446,1.676-0.829,3.368-1.224,5.055
		c-0.314,1.33-0.646,2.659-0.926,3.997c-0.372,1.747-0.67,3.502-0.989,5.261c-0.235,1.31-0.498,2.61-0.704,3.928
		c-0.291,1.844-0.509,3.705-0.743,5.563c-0.154,1.235-0.349,2.47-0.475,3.711c-0.217,2.062-0.354,4.14-0.497,6.212
		c-0.074,1.055-0.188,2.102-0.24,3.157c-0.062,1.186-0.058,2.381-0.098,3.571h-47.002V11.968
		c37.567,1.295,73.545,14.827,102.473,38.819C289.48,51.127,289.155,51.496,288.794,51.842z M175.658,11.968v163.689h-47
		c-0.043-1.189-0.037-2.385-0.094-3.571c-0.052-1.055-0.169-2.101-0.24-3.156c-0.146-2.072-0.28-4.151-0.498-6.212
		c-0.128-1.241-0.323-2.47-0.475-3.711c-0.234-1.858-0.452-3.72-0.743-5.564c-0.206-1.323-0.475-2.63-0.709-3.945
		c-0.314-1.752-0.615-3.496-0.984-5.234c-0.28-1.347-0.62-2.682-0.932-4.028c-0.392-1.682-0.778-3.362-1.218-5.032
		c-0.357-1.358-0.76-2.699-1.152-4.04c-0.475-1.632-0.943-3.262-1.458-4.877c-0.435-1.353-0.906-2.688-1.37-4.034
		c-0.552-1.581-1.095-3.168-1.687-4.731c-0.503-1.341-1.049-2.662-1.581-3.986c-0.626-1.541-1.252-3.079-1.921-4.603
		c-0.578-1.324-1.181-2.627-1.79-3.934c-0.697-1.501-1.406-2.994-2.144-4.469c-0.649-1.292-1.318-2.582-1.996-3.865
		c-0.775-1.453-1.553-2.902-2.361-4.332c-0.715-1.272-1.458-2.53-2.202-3.782c-0.838-1.406-1.693-2.799-2.564-4.174
		c-0.789-1.247-1.593-2.479-2.413-3.708c-0.906-1.352-1.827-2.693-2.768-4.022c-0.855-1.212-1.727-2.413-2.613-3.6
		c-0.972-1.306-1.967-2.587-2.973-3.865c-0.926-1.169-1.85-2.336-2.805-3.485c-1.038-1.253-2.102-2.482-3.174-3.706
		c-0.989-1.129-1.978-2.258-3.004-3.365c-1.095-1.195-2.225-2.362-3.354-3.525c-1.061-1.089-2.115-2.179-3.202-3.245
		c-0.352-0.346-0.686-0.709-1.043-1.055C102.109,26.794,138.09,13.263,175.658,11.968z M64.368,58.635
		c0.46,0.443,0.94,0.872,1.398,1.318c0.995,0.972,1.973,1.961,2.939,2.95c1.09,1.112,2.167,2.242,3.223,3.383
		c0.935,1.021,1.861,2.05,2.773,3.087c1.032,1.169,2.039,2.347,3.034,3.542c0.877,1.052,1.747,2.118,2.596,3.196
		c0.963,1.218,1.907,2.453,2.839,3.694c0.821,1.095,1.627,2.196,2.419,3.308c0.9,1.266,1.778,2.547,2.645,3.842
		c0.758,1.129,1.512,2.264,2.244,3.414c0.838,1.312,1.644,2.639,2.441,3.974c0.695,1.161,1.387,2.319,2.05,3.497
		c0.772,1.358,1.509,2.733,2.241,4.117c0.632,1.189,1.258,2.37,1.861,3.571c0.704,1.407,1.37,2.822,2.033,4.246
		c0.561,1.206,1.129,2.413,1.667,3.631c0.635,1.446,1.232,2.916,1.827,4.38c0.5,1.224,1.003,2.447,1.473,3.683
		c0.566,1.492,1.086,3.007,1.609,4.52c0.426,1.229,0.867,2.459,1.264,3.7c0.498,1.541,0.944,3.104,1.395,4.66
		c0.355,1.237,0.738,2.467,1.064,3.714c0.423,1.592,0.792,3.196,1.167,4.8c0.286,1.229,0.603,2.459,0.86,3.694
		c0.352,1.653,0.638,3.322,0.938,4.983c0.214,1.207,0.46,2.413,0.655,3.625c0.274,1.749,0.486,3.519,0.709,5.28
		c0.146,1.144,0.32,2.278,0.438,3.425c0.206,1.97,0.34,3.954,0.475,5.933c0.065,0.955,0.171,1.898,0.223,2.851
		c0.052,0.998,0.046,2.004,0.083,2.999H11.862C13.397,131.374,32.25,89.275,64.368,58.635z M68.705,300.127
		c-0.966,0.989-1.944,1.979-2.939,2.95c-0.458,0.446-0.938,0.881-1.398,1.315c-32.118-30.638-50.97-72.745-52.506-117.024h105.092
		c-0.037,1-0.029,2.001-0.083,2.996c-0.052,0.955-0.151,1.903-0.223,2.853c-0.134,1.979-0.269,3.963-0.475,5.93
		c-0.123,1.149-0.297,2.287-0.438,3.431c-0.223,1.762-0.429,3.522-0.703,5.278c-0.194,1.218-0.44,2.424-0.655,3.637
		c-0.3,1.663-0.586,3.321-0.938,4.975c-0.263,1.24-0.575,2.476-0.866,3.699c-0.375,1.606-0.744,3.214-1.167,4.804
		c-0.326,1.246-0.709,2.476-1.063,3.717c-0.452,1.555-0.897,3.11-1.395,4.654c-0.397,1.234-0.843,2.47-1.27,3.705
		c-0.529,1.51-1.043,3.019-1.609,4.518c-0.469,1.234-0.972,2.452-1.473,3.676c-0.594,1.47-1.187,2.934-1.824,4.386
		c-0.535,1.218-1.104,2.419-1.664,3.626c-0.669,1.424-1.335,2.853-2.039,4.254c-0.603,1.201-1.229,2.385-1.861,3.568
		c-0.732,1.383-1.469,2.756-2.241,4.122c-0.664,1.173-1.355,2.327-2.044,3.482c-0.803,1.344-1.609,2.671-2.453,3.991
		c-0.726,1.144-1.475,2.27-2.232,3.396c-0.866,1.298-1.744,2.579-2.65,3.854c-0.792,1.109-1.598,2.207-2.419,3.3
		c-0.932,1.241-1.875,2.476-2.839,3.693c-0.855,1.081-1.724,2.145-2.602,3.202c-0.995,1.195-2.007,2.373-3.034,3.54
		c-0.912,1.04-1.833,2.063-2.767,3.087C70.872,297.886,69.794,299.006,68.705,300.127z M181.512,351.314
		c-39.686,0-77.905-13.826-108.327-39.071c0.357-0.349,0.686-0.709,1.041-1.058c1.089-1.063,2.144-2.15,3.205-3.242
		c1.129-1.161,2.258-2.327,3.354-3.522c1.021-1.109,2.01-2.235,3.005-3.367c1.072-1.225,2.136-2.453,3.173-3.706
		c0.955-1.149,1.878-2.31,2.805-3.487c1.006-1.275,2.001-2.562,2.974-3.866c0.892-1.188,1.758-2.39,2.619-3.607
		c0.935-1.333,1.861-2.665,2.762-4.009c0.821-1.234,1.63-2.47,2.419-3.717c0.877-1.384,1.727-2.773,2.564-4.18
		c0.749-1.252,1.487-2.51,2.202-3.779c0.809-1.441,1.592-2.882,2.361-4.34c0.678-1.287,1.352-2.568,1.996-3.86
		c0.738-1.48,1.447-2.974,2.144-4.472c0.609-1.303,1.209-2.612,1.79-3.934c0.669-1.521,1.295-3.064,1.921-4.608
		c0.538-1.321,1.078-2.642,1.581-3.979c0.592-1.573,1.141-3.156,1.687-4.74c0.463-1.344,0.935-2.677,1.37-4.031
		c0.515-1.613,0.983-3.248,1.458-4.884c0.392-1.344,0.795-2.688,1.152-4.036c0.44-1.67,0.827-3.357,1.224-5.038
		c0.317-1.344,0.651-2.676,0.932-4.02c0.363-1.738,0.669-3.488,0.983-5.238c0.234-1.31,0.498-2.618,0.709-3.939
		c0.292-1.847,0.509-3.705,0.744-5.563c0.157-1.241,0.346-2.471,0.475-3.717c0.217-2.059,0.352-4.14,0.498-6.21
		c0.077-1.058,0.188-2.104,0.24-3.156c0.065-1.189,0.057-2.384,0.094-3.573h46.994v163.151h11.71V187.368h47.002
		c0.04,1.188,0.035,2.384,0.092,3.567c0.052,1.058,0.172,2.104,0.24,3.156c0.148,2.076,0.28,4.151,0.497,6.216
		c0.132,1.24,0.326,2.476,0.475,3.717c0.234,1.858,0.452,3.723,0.743,5.563c0.206,1.315,0.47,2.618,0.704,3.929
		c0.314,1.755,0.623,3.516,0.989,5.26c0.28,1.338,0.617,2.659,0.926,3.991c0.4,1.692,0.783,3.386,1.229,5.061
		c0.36,1.35,0.761,2.693,1.149,4.037c0.48,1.636,0.949,3.265,1.464,4.883c0.435,1.355,0.903,2.688,1.366,4.031
		c0.555,1.584,1.093,3.168,1.688,4.74c0.503,1.338,1.052,2.653,1.578,3.979c0.629,1.55,1.258,3.088,1.921,4.609
		c0.583,1.32,1.184,2.63,1.796,3.934c0.697,1.498,1.406,2.99,2.139,4.472c0.651,1.304,1.32,2.585,2.001,3.859
		c0.771,1.452,1.55,2.905,2.355,4.341c0.721,1.269,1.452,2.527,2.207,3.779c0.835,1.406,1.692,2.796,2.562,4.18
		c0.789,1.246,1.59,2.481,2.413,3.705c0.903,1.355,1.83,2.699,2.768,4.025c0.858,1.207,1.722,2.407,2.607,3.591
		c0.973,1.31,1.968,2.597,2.979,3.877c0.92,1.178,1.847,2.339,2.808,3.488c1.035,1.252,2.099,2.481,3.168,3.705
		c0.994,1.132,1.978,2.265,3.007,3.368c1.099,1.195,2.225,2.361,3.352,3.522c1.063,1.092,2.115,2.179,3.202,3.241
		c0.354,0.35,0.686,0.71,1.046,1.059C259.415,337.488,221.196,351.314,181.512,351.314z M298.658,304.393
		c-0.463-0.44-0.943-0.869-1.401-1.315c-0.994-0.972-1.967-1.955-2.938-2.95c-1.087-1.121-2.161-2.241-3.226-3.386
		c-0.938-1.018-1.863-2.047-2.768-3.087c-1.029-1.167-2.035-2.345-3.03-3.54c-0.88-1.058-1.749-2.121-2.607-3.202
		c-0.96-1.218-1.904-2.452-2.836-3.693c-0.823-1.093-1.624-2.19-2.419-3.3c-0.897-1.274-1.784-2.556-2.647-3.854
		c-0.761-1.121-1.51-2.253-2.235-3.396c-0.841-1.32-1.652-2.653-2.453-3.991c-0.687-1.155-1.384-2.31-2.047-3.482
		c-0.767-1.354-1.51-2.739-2.242-4.122c-0.623-1.184-1.258-2.367-1.857-3.568c-0.704-1.401-1.367-2.825-2.042-4.254
		c-0.561-1.207-1.126-2.408-1.658-3.626c-0.641-1.452-1.235-2.922-1.829-4.386c-0.498-1.224-1.001-2.441-1.47-3.676
		c-0.566-1.493-1.087-3.008-1.607-4.518c-0.429-1.235-0.869-2.459-1.269-3.705c-0.504-1.544-0.949-3.1-1.396-4.654
		c-0.36-1.235-0.743-2.471-1.063-3.717c-0.424-1.59-0.795-3.197-1.167-4.804c-0.286-1.235-0.605-2.459-0.869-3.694
		c-0.343-1.658-0.629-3.316-0.938-4.979c-0.218-1.213-0.457-2.419-0.651-3.637c-0.275-1.75-0.492-3.517-0.709-5.278
		c-0.144-1.144-0.32-2.281-0.436-3.431c-0.205-1.967-0.343-3.951-0.475-5.93c-0.062-0.954-0.171-1.897-0.223-2.853
		c-0.057-0.995-0.046-2.002-0.08-2.996h105.086C349.627,231.647,330.776,273.755,298.658,304.393z"/>
</g>
<g>
</g>
<g>
</g>
<g>
</g>
<g>
</g>
<g>
</g>
<g>
</g>
<g>
</g>
<g>
</g>
<g>
</g>
<g>
</g>
<g>
</g>
<g>
</g>
<g>
</g>
<g>
</g>
<g>
</g>
</svg>
