<?xml version="1.0" encoding="iso-8859-1"?>
<!-- Generator: Adobe Illustrator 19.0.0, SVG Export Plug-In . SVG Version: 6.00 Build 0)  -->
<svg version="1.1" id="Layer_1" xmlns="http://www.w3.org/2000/svg" xmlns:xlink="http://www.w3.org/1999/xlink" x="0px" y="0px"
	 viewBox="0 0 485 485" style="enable-background:new 0 0 485 485;" xml:space="preserve">
<g>
	<polygon points="259.442,155.868 283.68,180.106 244.096,219.691 219.857,195.453 198.645,216.666 222.883,240.904 180.106,283.68 
		155.868,259.442 134.655,280.656 204.345,350.345 225.558,329.132 201.32,304.894 244.096,262.117 268.334,286.355 
		289.547,265.142 265.309,240.904 304.894,201.32 329.132,225.558 350.345,204.344 280.655,134.655 	"/>
	<path d="M476.185,20.277l-2.052-9.409l-9.409-2.052C437.891,2.966,410.335,0,382.824,0c-49.715,0-98.181,9.431-144.05,28.032
		c-47.498,19.261-90.108,47.554-126.648,84.094c-46.173,46.172-79.927,103.59-97.613,166.046
		c-17.14,60.522-19.109,125.03-5.697,186.551l2.052,9.409l9.409,2.051c26.831,5.85,54.386,8.816,81.898,8.816
		c49.719,0,98.184-9.431,144.051-28.031c47.497-19.261,90.108-47.554,126.648-84.095c46.173-46.172,79.927-103.59,97.613-166.046
		C487.627,146.306,489.597,81.798,476.185,20.277z M448.814,36.19c6.874,36.186,8.03,72.587,3.81,108.074L340.834,32.473
		c13.834-1.63,27.847-2.473,41.99-2.473C404.948,30,427.1,32.08,448.814,36.19z M102.175,455c-22.124,0-44.277-2.081-65.989-6.19
		c-6.874-36.186-8.03-72.587-3.81-108.074l111.791,111.791C130.332,454.157,116.319,455,102.175,455z M351.661,351.661
		c-47.795,47.794-106.886,80.183-171.252,94.683L38.612,304.546c14.475-63.807,46.735-123.215,94.727-171.207
		c47.794-47.794,106.886-80.182,171.253-94.682l141.796,141.797C431.913,244.262,399.653,303.669,351.661,351.661z"/>
</g>
<g>
</g>
<g>
</g>
<g>
</g>
<g>
</g>
<g>
</g>
<g>
</g>
<g>
</g>
<g>
</g>
<g>
</g>
<g>
</g>
<g>
</g>
<g>
</g>
<g>
</g>
<g>
</g>
<g>
</g>
</svg>
