<?xml version="1.0" encoding="iso-8859-1"?>
<!-- Generator: Adobe Illustrator 16.0.0, SVG Export Plug-In . SVG Version: 6.00 Build 0)  -->
<!DOCTYPE svg PUBLIC "-//W3C//DTD SVG 1.1//EN" "http://www.w3.org/Graphics/SVG/1.1/DTD/svg11.dtd">
<svg version="1.1" id="Capa_1" xmlns="http://www.w3.org/2000/svg" xmlns:xlink="http://www.w3.org/1999/xlink" x="0px" y="0px"
	 width="467.777px" height="467.777px" viewBox="0 0 467.777 467.777" style="enable-background:new 0 0 467.777 467.777;"
	 xml:space="preserve">
<g>
	<path d="M383.638,56.835c-0.414-2.16-1.549-4.152-3.305-5.562C339.367,18.214,287.812,0,235.163,0
		C182.512,0,130.95,18.214,89.991,51.272c-0.774,0.63-1.386,1.387-1.918,2.208C33.732,97.667,2.559,163.057,2.559,232.99
		c0,73.619,33.854,141.173,92.867,185.338c2.086,1.555,4.599,2.128,6.984,1.785c38.688,30.725,87.092,47.664,136.532,47.664
		c50.012,0,98.97-17.295,137.869-48.692c2.146-1.737,3.352-4.315,3.44-7.034c54.089-44.147,84.967-108.816,84.967-179.061
		C465.224,164.783,435.523,100.947,383.638,56.835z M105.92,62.784c37.338-28.727,81.917-43.882,129.242-43.882
		c47.028,0,91.33,14.981,128.526,43.355c-6.372,66.295-62.879,117.875-129.797,117.875c-63.118,0-116.986-45.891-128.249-106.74
		l-1.738-8.618L105.92,62.784z M357.299,410.195c-34.513,25.31-75.22,38.674-118.357,38.674c-44.635,0-86.675-14.263-121.933-41.311
		c0.121-0.887,0.277-1.761,0.411-2.636c17.274-55.266,64.569-92.386,117.737-92.386c56.32,0,106.071,35.902,123.821,89.348
		c0.26,0.792,1.975,5.284,2.406,5.958L357.299,410.195z M375.328,391.393c-21.574-58.676-77.295-97.77-140.165-97.77
		c-60.139,0-113.614,40.619-134.411,101.529c-0.484,0.715-0.848,1.513-1.132,2.37c-49.745-40.548-78.152-99.98-78.152-164.532
		c0-58.644,23.856-113.814,66-153.851c13.828,68.521,74.954,119.909,146.424,119.909S366.485,147.666,380.31,79.139
		c42.144,40.037,66,95.208,66,153.851C446.316,294.367,420.616,351.1,375.328,391.393z"/>
</g>
<g>
</g>
<g>
</g>
<g>
</g>
<g>
</g>
<g>
</g>
<g>
</g>
<g>
</g>
<g>
</g>
<g>
</g>
<g>
</g>
<g>
</g>
<g>
</g>
<g>
</g>
<g>
</g>
<g>
</g>
</svg>
